# xmcd CD database file
#
# Track frame offsets:
#	180
#	17591
#	31937
#	50022
#	66196
#	82069
#	98271
#	113274
#	129521
#	146038
#	163500
#	179514
#	193764
#
# Disc length: 2809 seconds
#
# Revision: 0
# Processed by: cddbd v1.5.1PL0 Copyright (c) Steve Scherf et al.
# Submitted via: CDex 1.51
#
DISCID=a70af70d
DTITLE=Pop nach 8 - What You See... Is What You Get
DYEAR=1994
DGENRE=New Age
TTITLE0=What You See
TTITLE1=Missing You
TTITLE2=Stand By
TTITLE3=Lovers See Stars In The Sky
TTITLE4=Happy People
TTITLE5=No More Rain
TTITLE6=Dance Tonight
TTITLE7=Spanish Nights
TTITLE8=Miss You Like Crazy
TTITLE9=Island Girls
TTITLE10=Love Has The Power To Rule The World
TTITLE11=Baby When I Think About Myself
TTITLE12=Please Don't Go
EXTD=YEAR: 1994
EXTT0=
EXTT1=
EXTT2=
EXTT3=
EXTT4=
EXTT5=
EXTT6=
EXTT7=
EXTT8=
EXTT9=
EXTT10=
EXTT11=
EXTT12=
PLAYORDER=
